<svg version="1.1" xmlns="http://www.w3.org/2000/svg" xmlns:xlink="http://www.w3.org/1999/xlink" width="587.5" height="199.5"><defs><style xmlns="http://www.w3.org/1999/xhtml" type="text/css">@font-face {
  font-family: 'Inter';
  font-style: normal;
  font-weight: 400;
  src: url('https://frame0.app/fonts/Inter-Regular.ttf') format('truetype');
}
@font-face {
  font-family: 'Inter';
  font-style: italic;
  font-weight: 400;
  src: url('https://frame0.app/fonts/Inter-Italic.ttf') format('truetype');
}
@font-face {
  font-family: 'Inter';
  font-style: normal;
  font-weight: 500;
  src: url('https://frame0.app/fonts/Inter-Medium.ttf') format('truetype');
}
@font-face {
  font-family: 'Inter';
  font-style: italic;
  font-weight: 500;
  src: url('https://frame0.app/fonts/Inter-MediumItalic.ttf') format('truetype');
}
@font-face {
  font-family: 'Inter';
  font-style: normal;
  font-weight: 600;
  src: url('https://frame0.app/fonts/Inter-SemiBold.ttf') format('truetype');
}
@font-face {
  font-family: 'Inter';
  font-style: italic;
  font-weight: 600;
  src: url('https://frame0.app/fonts/Inter-SemiBoldItalic.ttf') format('truetype');
}
@font-face {
  font-family: 'Inter';
  font-style: normal;
  font-weight: 700;
  src: url('https://frame0.app/fonts/Inter-Bold.ttf') format('truetype');
}
@font-face {
  font-family: 'Inter';
  font-style: italic;
  font-weight: 700;
  src: url('https://frame0.app/fonts/Inter-BoldItalic.ttf') format('truetype');
}
@font-face {
  font-family: 'Inter';
  font-style: normal;
  font-weight: 800;
  src: url('https://frame0.app/fonts/Inter-ExtraBold.ttf') format('truetype');
}
@font-face {
  font-family: 'Inter';
  font-style: italic;
  font-weight: 800;
  src: url('https://frame0.app/fonts/Inter-ExtraBoldItalic.ttf') format('truetype');
}
@font-face {
  font-family: 'Source Serif Pro';
  font-style: normal;
  font-weight: 400;
  src: url('https://frame0.app/fonts/SourceSerifPro-Regular.ttf') format('truetype');
}
@font-face {
  font-family: 'Source Serif Pro';
  font-style: italic;
  font-weight: 400;
  src: url('https://frame0.app/fonts/SourceSerifPro-Italic.ttf') format('truetype');
}
@font-face {
  font-family: 'Source Serif Pro';
  font-style: normal;
  font-weight: 700;
  src: url('https://frame0.app/fonts/SourceSerifPro-Bold.ttf') format('truetype');
}
@font-face {
  font-family: 'Source Serif Pro';
  font-style: italic;
  font-weight: 700;
  src: url('https://frame0.app/fonts/SourceSerifPro-BoldItalic.ttf') format('truetype');
}
@font-face {
  font-family: 'IBM Plex Mono';
  font-style: normal;
  font-weight: 400;
  src: url('https://frame0.app/fonts/IBMPlexMono-Regular.ttf') format('truetype');
}
@font-face {
  font-family: 'IBM Plex Mono';
  font-style: italic;
  font-weight: 400;
  src: url('https://frame0.app/fonts/IBMPlexMono-Italic.ttf') format('truetype');
}
@font-face {
  font-family: 'IBM Plex Mono';
  font-style: normal;
  font-weight: 700;
  src: url('https://frame0.app/fonts/IBMPlexMono-Bold.ttf') format('truetype');
}
@font-face {
  font-family: 'IBM Plex Mono';
  font-style: italic;
  font-weight: 700;
  src: url('https://frame0.app/fonts/IBMPlexMono-BoldItalic.ttf') format('truetype');
}
@font-face {
  font-family: 'Loranthus';
  font-style: normal;
  font-weight: 400;
  src: url('https://frame0.app/fonts/Loranthus-Regular.ttf') format('truetype');
}
@font-face {
  font-family: 'Loranthus';
  font-style: normal;
  font-weight: 700;
  src: url('https://frame0.app/fonts/Loranthus-Bold.ttf') format('truetype');
}
@font-face {
  font-family: 'Loranthus';
  font-style: italic;
  font-weight: 400;
  src: url('https://frame0.app/fonts/Loranthus-Italic.ttf') format('truetype');
}
@font-face {
  font-family: 'Loranthus';
  font-style: italic;
  font-weight: 700;
  src: url('https://frame0.app/fonts/Loranthus-BoldItalic.ttf') format('truetype');
}
@font-face {
  font-family: 'Jojoba';
  font-style: normal;
  font-weight: 400;
  src: url('https://frame0.app/fonts/Jojoba.ttf') format('truetype');
}</style></defs><g><g><g><g><path fill="#000000" stroke="none" paint-order="stroke fill markers" d=" M 69 70.5 C 130.70040877237915 72.98616768059135 197.07564984932543 76.43093708691 261 70.5 C 259.41053225174545 68.50232400521637 260.782055798918 69.315469571203 261 70.5 C 262.39089956854286 89.97454968988896 264.7325249013752 112.36600545868278 261 178.5 C 259.04814064130187 179.49689628258346 264.5804565869272 181.91990756168963 261 178.5 C 202.34749586954712 174.15608712896704 135.1393287576735 173.99624914392828 69 178.5 C 69.28432969227433 180.17857577428222 66.73120037689804 180.47339324578644 69 178.5 C 70.21089156027138 141.66071860045196 69.1788421189338 103.00603372380138 69 70.5 C 70.23992967233062 69.54521307125688 67.680162640661 73.4308273471892 69 70.5 C 69 70.5 69 70.5 69 70.5"/></g><g><path fill="none" stroke="#00000000" paint-order="fill stroke markers" d=" M 69 70.5 C 134.0640721924603 69.7531750588119 199.95268006399272 69.35763637110591 261 70.5 M 69 70.5 C 111.07165008150042 70.30066330589354 153.43235860429706 69.42407943166792 261 70.5 M 261 70.5 C 262.88674868270755 69.74566297605634 260.39751721546054 72.05350749567151 261 70.5 M 261 70.5 C 262.56437209341675 70.70532131996006 259.0654357919469 71.75111307110637 261 70.5 M 261 70.5 C 259.26409159488975 96.71032345294952 259.7123207885772 125.25729631260037 261 178.5 M 261 70.5 C 259.9125468203425 93.71132034026087 261.08613444060086 117.25806925185026 261 178.5 M 261 178.5 C 262.2638886086643 179.66702883318067 262.64880646392703 180.03682022169232 261 178.5 M 261 178.5 C 260.82625950668006 177.67264695372432 261.04110322687774 179.99386461582034 261 178.5 M 261 178.5 C 198.4990095026791 182.31687189385295 133.11097607687114 179.77497853085399 69 178.5 M 261 178.5 C 203.34550271593034 180.5290335742384 147.40192564092575 180.61814412750303 69 178.5 M 69 178.5 C 67.74995721504092 177.68472724035382 70.96861911937594 177.71351139619946 69 178.5 M 69 178.5 C 68.31989683602005 179.440171523951 68.41963263843209 177.58708975519986 69 178.5 M 69 178.5 C 70.76817005001008 143.51984486430882 70.14949708305299 106.88601726070047 69 70.5 M 69 178.5 C 70.18996998503805 141.18498669974505 69.5699212832749 103.30584664531051 69 70.5 M 69 70.5 C 67.38877774402499 71.19048183038831 67.24843467399478 68.69014840200543 69 70.5 M 69 70.5 C 69.75154018495232 72.49626783337445 70.04458481762558 68.45373160447926 69 70.5 M 69 70.5 C 69 70.5 69 70.5 69 70.5 M 69 70.5 C 69 70.5 69 70.5 69 70.5" stroke-linecap="round" stroke-linejoin="round" stroke-miterlimit="10" stroke-width="2" stroke-dasharray=""/></g><g><path fill="none" stroke="#ffffff" paint-order="fill stroke markers" d=" M 69 70.5 C 134.0640721924603 69.7531750588119 199.95268006399272 69.35763637110591 261 70.5 M 69 70.5 C 111.07165008150042 70.30066330589354 153.43235860429706 69.42407943166792 261 70.5 M 261 70.5 C 262.88674868270755 69.74566297605634 260.39751721546054 72.05350749567151 261 70.5 M 261 70.5 C 262.56437209341675 70.70532131996006 259.0654357919469 71.75111307110637 261 70.5 M 261 70.5 C 259.26409159488975 96.71032345294952 259.7123207885772 125.25729631260037 261 178.5 M 261 70.5 C 259.9125468203425 93.71132034026087 261.08613444060086 117.25806925185026 261 178.5 M 261 178.5 C 262.2638886086643 179.66702883318067 262.64880646392703 180.03682022169232 261 178.5 M 261 178.5 C 260.82625950668006 177.67264695372432 261.04110322687774 179.99386461582034 261 178.5 M 261 178.5 C 198.4990095026791 182.31687189385295 133.11097607687114 179.77497853085399 69 178.5 M 261 178.5 C 203.34550271593034 180.5290335742384 147.40192564092575 180.61814412750303 69 178.5 M 69 178.5 C 67.74995721504092 177.68472724035382 70.96861911937594 177.71351139619946 69 178.5 M 69 178.5 C 68.31989683602005 179.440171523951 68.41963263843209 177.58708975519986 69 178.5 M 69 178.5 C 70.76817005001008 143.51984486430882 70.14949708305299 106.88601726070047 69 70.5 M 69 178.5 C 70.18996998503805 141.18498669974505 69.5699212832749 103.30584664531051 69 70.5 M 69 70.5 C 67.38877774402499 71.19048183038831 67.24843467399478 68.69014840200543 69 70.5 M 69 70.5 C 69.75154018495232 72.49626783337445 70.04458481762558 68.45373160447926 69 70.5 M 69 70.5 C 69 70.5 69 70.5 69 70.5 M 69 70.5 C 69 70.5 69 70.5 69 70.5" stroke-linecap="round" stroke-linejoin="round" stroke-miterlimit="10" stroke-width="2"/></g></g><g><g><path fill="none" stroke="#ffffff" paint-order="fill stroke markers" d=" M 260.9790634782968 46.49997260383178 C 262.01595284826016 43.24667320252556 260.6697167523308 40.51800511010511 261.0209365217032 30.50002739616822 M 260.9790634782968 46.49997260383178 C 260.651725905632 42.503248290288 261.2952640527151 37.89623959696944 261.0209365217032 30.50002739616822" stroke-linecap="round" stroke-linejoin="round" stroke-miterlimit="10" stroke-width="2"/></g><g><path fill="none" stroke="#ffffff" paint-order="fill stroke markers" d=" M 69.02093652170325 29.99754915454288 C 69.90732289367463 33.29418748943618 68.54394642933178 37.114958681679624 68.97906347829675 45.99749436220644 M 69.02093652170325 29.99754915454288 C 68.84188574751713 34.92238262964243 69.46207340571662 39.237738118996745 68.97906347829675 45.99749436220644" stroke-linecap="round" stroke-linejoin="round" stroke-miterlimit="10" stroke-width="2"/></g><g><path fill="none" stroke="#ffffff" paint-order="fill stroke markers" d=" M 69.7142325874418 38.7187501616002 C 101.90759991370142 38.83670241298533 229.06432573758067 38.283932382290075 261.01625210009513 38.205123693123454 M 68.63006596650928 38.051791127954516 C 100.76692985024303 38.39206921337552 228.03447788085788 39.35804051735701 260.07673898901794 39.587738883234564" stroke-linecap="round" stroke-linejoin="round" stroke-miterlimit="10" stroke-width="2"/></g></g><g><g><path fill="none" stroke="#ffffff" paint-order="fill stroke markers" d=" M 45 70.5 C 41.831017234921454 70.1934398587048 36.46514966934919 68.99714168861509 29 70.5 M 45 70.5 C 38.34952616468072 71.30117097944022 32.3015398465097 69.97353232949972 29 70.5" stroke-linecap="round" stroke-linejoin="round" stroke-miterlimit="10" stroke-width="2"/></g><g><path fill="none" stroke="#ffffff" paint-order="fill stroke markers" d=" M 29 182.50000000000006 C 34.98070118427277 182.46637306556113 38.764517568051815 181.2700748954714 45 182.50000000000006 M 29 182.50000000000006 C 34.561256600171326 183.29367119371898 40.725000717490914 181.96603254377848 45 182.50000000000006" stroke-linecap="round" stroke-linejoin="round" stroke-miterlimit="10" stroke-width="2"/></g><g><path fill="none" stroke="#ffffff" paint-order="fill stroke markers" d=" M 35.97650047428906 183.5543944071979 C 35.98338353522122 165.13996199679877 36.87264555580914 89.64029112967353 36.8724298465997 70.96112521402537 M 37.64002449395135 183.06234752563765 C 37.49249987306074 164.3747058479799 35.74216560365632 87.98252076097454 35.85741005243733 69.08064120260998" stroke-linecap="round" stroke-linejoin="round" stroke-miterlimit="10" stroke-width="2"/></g></g><g><path fill="none" stroke="none"/><text fill="#ffffff" stroke="none" font-family="Loranthus" font-size="16px" font-style="normal" font-weight="400" text-decoration="undefined" x="44.5" y="-112.9" text-anchor="start" dominant-baseline="alphabetic" transform="matrix(1 0 0 1 53 134.5)">1920 px (13.2 mm)</text></g><g><path fill="none" stroke="none"/><text fill="#ffffff" stroke="none" font-family="Loranthus" font-size="16px" font-style="normal" font-weight="400" text-decoration="undefined" x="-104" y="-5.899999999999999" text-anchor="start" dominant-baseline="alphabetic" transform="matrix(-1.8369701987210297e-16 -1 1 -1.8369701987210297e-16 27.499999999999993 89)">1080 px (9.75 mm)</text></g><g><g><path fill="#000000" stroke="none" paint-order="stroke fill markers" d=" M 379.5 70.5 C 451.13303912356497 71.14739072200656 520.3733934111893 71.01783466216922 571.5 70.5 C 570.9648792453111 73.28605040833354 568.1392606683075 67.45171987339855 571.5 70.5 C 574.6721815749854 107.93397162258626 573.3745247766227 149.75268431827428 571.5 178.5 C 569.4499247722327 176.11868044808506 570.8239095143974 180.53616947606207 571.5 178.5 C 507.92494433596727 175.43509762117267 450.1020407147705 175.96750216314197 379.5 178.5 C 376.8606620259583 179.01665503308178 378.15510189011695 181.3233378343284 379.5 178.5 C 375.80378350760043 153.77068840116263 379.22314102198186 134.7554625056684 379.5 70.5 C 379.7972659997642 70.2270746178925 381.118880289048 73.8704326339066 379.5 70.5 C 379.5 70.5 379.5 70.5 379.5 70.5"/></g><g><path fill="none" stroke="#00000000" paint-order="fill stroke markers" d=" M 379.5 70.5 C 425.36037917509674 68.34484529003501 475.64324340000746 69.82579862579703 571.5 70.5 M 379.5 70.5 C 443.21608878187834 69.89137640185655 507.108555040881 71.12485202737153 571.5 70.5 M 571.5 70.5 C 569.7524204216897 69.08617538586259 572.772050973028 69.67251903191209 571.5 70.5 M 571.5 70.5 C 572.2661178426818 72.37438408862799 572.4943421619013 71.99049713741988 571.5 70.5 M 571.5 70.5 C 571.1611105010659 97.35935919284822 572.2693848416955 127.45399496927858 571.5 178.5 M 571.5 70.5 C 572.5500538429618 100.62388211898505 573.1926644524932 130.4743322495371 571.5 178.5 M 571.5 178.5 C 572.9458078108728 177.08883864060044 573.3300204239786 179.41588586941361 571.5 178.5 M 571.5 178.5 C 570.0358228342608 180.20403260122984 569.6576939659193 180.3454288912937 571.5 178.5 M 571.5 178.5 C 498.72711704149845 178.6206319783628 429.6950658716261 177.3047484610975 379.5 178.5 M 571.5 178.5 C 526.0096607308835 180.54752473302185 481.2627313952893 180.42813704676925 379.5 178.5 M 379.5 178.5 C 378.7781379185617 177.4954668916762 377.68232810124755 177.65977532044053 379.5 178.5 M 379.5 178.5 C 381.2416669325903 176.30450306665153 380.0675303356722 180.75683323275297 379.5 178.5 M 379.5 178.5 C 380.70856819443406 156.88637119978665 378.7329420834035 133.38298965767027 379.5 70.5 M 379.5 178.5 C 378.99469390168787 152.04714276753367 379.5233099128306 126.39919729568064 379.5 70.5 M 379.5 70.5 C 379.33766758069396 70.55178767815232 379.3430120907724 68.53663367405534 379.5 70.5 M 379.5 70.5 C 377.5956923739985 69.4665852798149 377.9380419449881 71.82272651921957 379.5 70.5 M 379.5 70.5 C 379.5 70.5 379.5 70.5 379.5 70.5 M 379.5 70.5 C 379.5 70.5 379.5 70.5 379.5 70.5" stroke-linecap="round" stroke-linejoin="round" stroke-miterlimit="10" stroke-width="2" stroke-dasharray=""/></g><g><path fill="none" stroke="#ffffff" paint-order="fill stroke markers" d=" M 379.5 70.5 C 425.36037917509674 68.34484529003501 475.64324340000746 69.82579862579703 571.5 70.5 M 379.5 70.5 C 443.21608878187834 69.89137640185655 507.108555040881 71.12485202737153 571.5 70.5 M 571.5 70.5 C 569.7524204216897 69.08617538586259 572.772050973028 69.67251903191209 571.5 70.5 M 571.5 70.5 C 572.2661178426818 72.37438408862799 572.4943421619013 71.99049713741988 571.5 70.5 M 571.5 70.5 C 571.1611105010659 97.35935919284822 572.2693848416955 127.45399496927858 571.5 178.5 M 571.5 70.5 C 572.5500538429618 100.62388211898505 573.1926644524932 130.4743322495371 571.5 178.5 M 571.5 178.5 C 572.9458078108728 177.08883864060044 573.3300204239786 179.41588586941361 571.5 178.5 M 571.5 178.5 C 570.0358228342608 180.20403260122984 569.6576939659193 180.3454288912937 571.5 178.5 M 571.5 178.5 C 498.72711704149845 178.6206319783628 429.6950658716261 177.3047484610975 379.5 178.5 M 571.5 178.5 C 526.0096607308835 180.54752473302185 481.2627313952893 180.42813704676925 379.5 178.5 M 379.5 178.5 C 378.7781379185617 177.4954668916762 377.68232810124755 177.65977532044053 379.5 178.5 M 379.5 178.5 C 381.2416669325903 176.30450306665153 380.0675303356722 180.75683323275297 379.5 178.5 M 379.5 178.5 C 380.70856819443406 156.88637119978665 378.7329420834035 133.38298965767027 379.5 70.5 M 379.5 178.5 C 378.99469390168787 152.04714276753367 379.5233099128306 126.39919729568064 379.5 70.5 M 379.5 70.5 C 379.33766758069396 70.55178767815232 379.3430120907724 68.53663367405534 379.5 70.5 M 379.5 70.5 C 377.5956923739985 69.4665852798149 377.9380419449881 71.82272651921957 379.5 70.5 M 379.5 70.5 C 379.5 70.5 379.5 70.5 379.5 70.5 M 379.5 70.5 C 379.5 70.5 379.5 70.5 379.5 70.5" stroke-linecap="round" stroke-linejoin="round" stroke-miterlimit="10" stroke-width="2"/></g></g><g><g><path fill="none" stroke="#ffffff" paint-order="fill stroke markers" d=" M 571.4790634782968 46.49997260383178 C 572.1105443075021 40.837368580001524 571.6408907236514 36.32879265973746 571.5209365217032 30.50002739616822 M 571.4790634782968 46.49997260383178 C 571.2056415376044 43.02317410965537 571.5844806490747 40.35710307327861 571.5209365217032 30.50002739616822" stroke-linecap="round" stroke-linejoin="round" stroke-miterlimit="10" stroke-width="2"/></g><g><path fill="none" stroke="#ffffff" paint-order="fill stroke markers" d=" M 379.5209365217033 29.99754915454288 C 379.93352284583256 33.82571179370002 379.43902972024097 38.808476232488246 379.4790634782967 45.99749436220644 M 379.5209365217033 29.99754915454288 C 379.3403111118102 32.95468753794762 379.7023122923167 36.72249259265021 379.4790634782967 45.99749436220644" stroke-linecap="round" stroke-linejoin="round" stroke-miterlimit="10" stroke-width="2"/></g><g><path fill="none" stroke="#ffffff" paint-order="fill stroke markers" d=" M 378.67794931791724 38.38904694087515 C 410.5700859274715 38.5990731096492 538.760091837868 38.70935935718269 570.8120844807476 38.52997016645968 M 380.4472339804843 37.54899371634879 C 412.7347210212425 38.0296845257879 541.5780211837963 40.006816654068245 573.1628833695129 40.08312975507229" stroke-linecap="round" stroke-linejoin="round" stroke-miterlimit="10" stroke-width="2"/></g></g><g><g><path fill="none" stroke="#ffffff" paint-order="fill stroke markers" d=" M 355.5 70.5 C 349.5133063852787 71.90926407963038 346.0967057317495 70.39516047626734 339.5 70.5 M 355.5 70.5 C 349.7623743250966 70.03591941058636 345.16841656416653 70.73903978526593 339.5 70.5" stroke-linecap="round" stroke-linejoin="round" stroke-miterlimit="10" stroke-width="2"/></g><g><path fill="none" stroke="#ffffff" paint-order="fill stroke markers" d=" M 339.5 182.50000000000006 C 342.7593554019928 184.14786930292848 348.5888037651777 182.63376569956546 355.5 182.50000000000006 M 339.5 182.50000000000006 C 344.45780794769524 181.98257052540785 350.5592838093639 182.68569090008742 355.5 182.50000000000006" stroke-linecap="round" stroke-linejoin="round" stroke-miterlimit="10" stroke-width="2"/></g><g><path fill="none" stroke="#ffffff" paint-order="fill stroke markers" d=" M 346.60523041263224 181.47724817022686 C 346.8184231854975 162.63892048423494 348.49548886790876 88.80980948830646 348.6464250184596 70.38206606134773 M 348.3363376499247 183.55469951425684 C 348.5034353397321 164.83061754132004 348.5645016546082 90.98603625788975 348.30025268952363 71.85757599477657" stroke-linecap="round" stroke-linejoin="round" stroke-miterlimit="10" stroke-width="2"/></g></g><g><path fill="none" stroke="none"/><text fill="#ffffff" stroke="none" font-family="Loranthus" font-size="16px" font-style="normal" font-weight="400" text-decoration="undefined" x="364" y="-112.9" text-anchor="start" dominant-baseline="alphabetic" transform="matrix(1 0 0 1 53 134.5)">1920 px (X mm)</text></g><g><path fill="none" stroke="none"/><text fill="#ffffff" stroke="none" font-family="Loranthus" font-size="16px" font-style="normal" font-weight="400" text-decoration="undefined" x="214" y="-5.399999999999999" text-anchor="start" dominant-baseline="alphabetic" transform="matrix(-1.8369701987210297e-16 -1 1 -1.8369701987210297e-16 335.00000000000006 397.5)">1080 px (Y mm)</text></g><g><path fill="none" stroke="none"/><text fill="#ffffff" stroke="none" font-family="Loranthus" font-size="16px" font-style="normal" font-weight="400" text-decoration="undefined" x="75.5" y="-5.899999999999999" text-anchor="start" dominant-baseline="alphabetic" transform="matrix(1 0 0 1 53 134.5)">PHYSICAL</text></g><g><path fill="none" stroke="none"/><text fill="#ffffff" stroke="none" font-family="Loranthus" font-size="16px" font-style="normal" font-weight="400" text-decoration="undefined" x="393.5" y="-5.899999999999999" text-anchor="start" dominant-baseline="alphabetic" transform="matrix(1 0 0 1 53 134.5)">VIRTUAL</text></g></g></g></svg>