<?xml version="1.0" encoding="UTF-8"?>
<svg width="101.54mm" height="68.936mm" version="1.2" viewBox="0 0 1015.4 689.36" xmlns="http://www.w3.org/2000/svg" xmlns:cc="http://creativecommons.org/ns#" xmlns:dc="http://purl.org/dc/elements/1.1/" xmlns:rdf="http://www.w3.org/1999/02/22-rdf-syntax-ns#">
 <title>FreeCAD SVG Export</title>
 <desc>Drawing page: Page exported from FreeCAD document: Unnamed1</desc>
 <g id="Page" transform="translate(-140.98 -1215.2)">
  <g id="A4_Landscape_blank.svg" transform="scale(10)">
   <metadata>
    <rdf:RDF>
     <cc:Work rdf:about="">
      <dc:format>image/svg+xml</dc:format>
      <dc:type rdf:resource="http://purl.org/dc/dcmitype/StillImage"/>
      <dc:title>FreeCAD SVG Export</dc:title>
     </cc:Work>
    </rdf:RDF>
   </metadata>
  </g>
  <g id="DrawingContent" fill="none" fill-rule="evenodd" font-family="'MS Shell Dlg 2'" font-size="29.104px" font-weight="400" stroke="#fff" stroke-linecap="square" stroke-linejoin="bevel">
   <g transform="translate(1485,1050)" fill="none" stroke-linecap="square" stroke-linejoin="bevel">
    <rect width="0" height="0" stroke="#fff"/>
   </g>
   <g transform="translate(603.61 1507.7)" fill="#f1f3f5" fill-opacity="0" fill-rule="evenodd">
    <path d="m436.99-7.0423 24.395-14.085v-19.596l-35.32-20.392c-2.691 1.5536-6.627 2.145-10.288 1.5458v-38.104l-335.17-193.51-373.35 215.56v29.394l-2.334 1.3472v8.5732c-4.1 2.3674-10.748 2.3674-14.849 0l-151.46 87.447v19.596l381.84 220.45 151.46-87.447v-8.573c4.1005-2.367 10.749-2.367 14.849 0l12.092-6.981v-8.573c4.1005-2.368 10.748-2.368 14.85 0l12.091-6.981v-8.573c4.101-2.368 10.749-2.368 14.85 0l12.091-6.981v-8.574c4.101-2.367 10.749-2.367 14.849 0l12.092-6.981v-8.573c4.1-2.367 10.749-2.367 14.849 0l12.092-6.981v-8.573c4.1-2.368 10.748-2.368 14.849 0l12.091-6.981v-8.573c4.101-2.3679 10.749-2.3679 14.85 0l12.091-6.9815v-8.5732c4.101-2.3675 10.749-2.3675 14.849 0l12.092-6.9811v-8.5732c4.1-2.3674 10.749-2.3674 14.849 0l12.092-6.981v-8.5732c4.1-2.3675 10.748-2.3675 14.849 0l12.091-6.9811v-8.5732c4.101-2.3674 10.749-2.3674 14.85 0l12.091-6.981v-8.5733c4.101-2.3674 10.749-2.3674 14.849 0l12.092-6.981v-8.5732c4.1-2.3674 10.749-2.3674 14.849 0l12.092-6.981v-8.5732c4.1-2.3674 10.748-2.3674 14.849 0" vector-effect="non-scaling-stroke"/>
    <path d="m415.78-97.673-335.17-193.51-373.35 215.56 335.17 193.51 373.35-215.56" vector-effect="non-scaling-stroke"/>
    <path d="m436.99-26.638 24.395-14.085-35.32-20.392c-2.691 1.5536-6.627 2.145-10.288 1.5458v18.234l-373.35 215.56-335.17-193.51v-19.072c-0.528 0.7674-1.322 1.4644-2.334 2.0483-4.1 2.3674-10.748 2.3674-14.849 0l-151.46 87.447 381.84 220.45 151.46-87.447c-1.9692-1.136-3.0754-2.678-3.0754-4.286 0-2.452 2.5582-4.663 6.4818-5.601s8.4398-0.42 11.443 1.314l12.092-6.981c-1.9691-1.137-3.0754-2.679-3.0754-4.286 0-2.452 2.5583-4.663 6.4819-5.601 3.924-0.939 8.44-0.42 11.443 1.314l12.091-6.981c-1.969-1.137-3.075-2.679-3.075-4.287 0-2.452 2.558-4.662 6.482-5.6 3.923-0.939 8.44-0.42 11.443 1.314l12.091-6.981c-1.969-1.137-3.075-2.679-3.075-4.287 0-2.452 2.558-4.662 6.482-5.601 3.923-0.938 8.439-0.419 11.442 1.314l12.092-6.981c-1.969-1.137-3.076-2.678-3.076-4.286 0-2.452 2.559-4.663 6.482-5.601 3.924-0.938 8.44-0.42 11.443 1.314l12.092-6.981c-1.97-1.137-3.076-2.679-3.076-4.287 0-2.4514 2.558-4.6619 6.482-5.6002s8.44-0.4197 11.443 1.3141l12.091-6.9811c-1.969-1.1368-3.075-2.6788-3.075-4.2866 0-2.4519 2.558-4.6624 6.482-5.6007 3.923-0.9383 8.44-0.4197 11.443 1.3141l12.091-6.981c-1.969-1.1369-3.075-2.6788-3.075-4.2866 0-2.452 2.558-4.6624 6.482-5.6008 3.923-0.9383 8.439-0.4196 11.442 1.3142l12.092-6.9811c-1.969-1.1369-3.075-2.6788-3.075-4.2866 0-2.4519 2.558-4.6624 6.481-5.6007 3.924-0.9383 8.44-0.4197 11.443 1.3141l12.092-6.981c-1.969-1.1369-3.076-2.6789-3.076-4.2867 0-2.4519 2.559-4.6624 6.482-5.6007 3.924-0.9383 8.44-0.4196 11.443 1.3141l12.091-6.981c-1.969-1.1369-3.075-2.6788-3.075-4.2866 0-2.4519 2.558-4.6624 6.482-5.6007 3.923-0.9383 8.44-0.4197 11.443 1.3141l12.091-6.9811c-1.969-1.1368-3.075-2.6788-3.075-4.2866 0-2.4519 2.558-4.6624 6.482-5.6007 3.923-0.93831 8.439-0.41965 11.442 1.3141l12.092-6.981c-1.969-1.1369-3.075-2.6788-3.075-4.2866 0-2.4519 2.558-4.6624 6.481-5.6008 3.924-0.9383 8.44-0.4196 11.443 1.3142l12.092-6.9811c-1.969-1.1369-3.076-2.6788-3.076-4.2866 0-2.4519 2.559-4.6624 6.482-5.6007 3.924-0.9383 8.44-0.4197 11.443 1.3141" vector-effect="non-scaling-stroke"/>
    <path d="m42.426 174.22 373.35-215.56v-56.338l-373.35 215.56v56.338" vector-effect="non-scaling-stroke"/>
    <path d="m-292.74-19.29 335.17 193.51v-56.338l-335.17-193.51v56.338" vector-effect="non-scaling-stroke"/>
    <path d="m-461.39 70.729 381.84 220.45v-19.596l-381.84-220.45v19.596" vector-effect="non-scaling-stroke"/>
    <path d="m-79.55 291.18 151.46-87.447v-19.596l-151.46 87.447v19.596" vector-effect="non-scaling-stroke"/>
    <path d="m436.99-26.638v19.596l24.395-14.085v-19.596l-24.395 14.085" vector-effect="non-scaling-stroke"/>
    <path d="m140.64 144.46v19.596c-4.101-2.368-10.749-2.368-14.85 0v-11.023c-1.969-1.137-3.075-2.679-3.075-4.287 0-2.452 2.558-4.662 6.482-5.6 3.923-0.939 8.44-0.42 11.443 1.314" vector-effect="non-scaling-stroke"/>
    <path d="m356.17 20.025v19.596c-4.101-2.3674-10.749-2.3674-14.85 0v-11.023c-1.969-1.1369-3.075-2.6788-3.075-4.2866 0-2.4519 2.558-4.6624 6.482-5.6007 3.923-0.9383 8.44-0.4197 11.443 1.3141" vector-effect="non-scaling-stroke"/>
    <path d="m329.23 35.579v19.596c-4.101-2.3675-10.749-2.3675-14.849 0v-11.023c-1.969-1.1369-3.076-2.6789-3.076-4.2867 0-2.4519 2.559-4.6624 6.482-5.6007 3.924-0.9383 8.44-0.4196 11.443 1.3141" vector-effect="non-scaling-stroke"/>
    <path d="m383.11 4.4703v19.596c-4.1-2.3674-10.748-2.3674-14.849 0v-11.023c-1.969-1.1368-3.075-2.6788-3.075-4.2866 0-2.4519 2.558-4.6624 6.482-5.6007 3.923-0.93831 8.439-0.41965 11.442 1.3141" vector-effect="non-scaling-stroke"/>
    <path d="m248.41 82.242v19.596c-4.101-2.3679-10.749-2.3679-14.85 0v-11.023c-1.969-1.1368-3.075-2.6788-3.075-4.2866 0-2.4519 2.558-4.6624 6.482-5.6007 3.923-0.9383 8.44-0.4197 11.443 1.3141" vector-effect="non-scaling-stroke"/>
    <path d="m167.58 128.9v19.596c-4.1-2.367-10.748-2.367-14.849 0v-11.022c-1.969-1.137-3.075-2.679-3.075-4.287 0-2.452 2.558-4.662 6.482-5.601 3.923-0.938 8.439-0.419 11.442 1.314" vector-effect="non-scaling-stroke"/>
    <path d="m302.29 51.133v19.596c-4.1-2.3674-10.749-2.3674-14.849 0v-11.023c-1.969-1.1369-3.075-2.6788-3.075-4.2866 0-2.4519 2.558-4.6624 6.481-5.6007 3.924-0.9383 8.44-0.4197 11.443 1.3141" vector-effect="non-scaling-stroke"/>
    <path d="m275.35 66.687v19.596c-4.1-2.3675-10.748-2.3675-14.849 0v-11.023c-1.969-1.1369-3.075-2.6788-3.075-4.2866 0-2.452 2.558-4.6624 6.482-5.6008 3.923-0.9383 8.439-0.4196 11.442 1.3142" vector-effect="non-scaling-stroke"/>
    <path d="m410.05-11.084v19.596c-4.1-2.3674-10.749-2.3674-14.849 0v-11.023c-1.969-1.1369-3.075-2.6788-3.075-4.2866 0-2.4519 2.558-4.6624 6.481-5.6008 3.924-0.9383 8.44-0.4196 11.443 1.3142" vector-effect="non-scaling-stroke"/>
    <path d="m113.7 160.01v19.596c-4.101-2.368-10.749-2.368-14.85 0v-11.023c-1.9691-1.137-3.0754-2.679-3.0754-4.286 0-2.452 2.5583-4.663 6.4819-5.601 3.924-0.939 8.44-0.42 11.443 1.314" vector-effect="non-scaling-stroke"/>
    <path d="m221.47 97.796v19.596c-4.101-2.368-10.749-2.368-14.849 0v-11.023c-1.97-1.137-3.076-2.679-3.076-4.287 0-2.4514 2.558-4.6619 6.482-5.6002s8.44-0.4197 11.443 1.3141" vector-effect="non-scaling-stroke"/>
    <path d="m86.762 175.57v19.596c-4.1005-2.367-10.749-2.367-14.849 0v-11.023c-1.9692-1.136-3.0754-2.678-3.0754-4.286 0-2.452 2.5582-4.663 6.4818-5.601s8.4398-0.42 11.443 1.314" vector-effect="non-scaling-stroke"/>
    <path d="m436.99-26.638v19.596c-4.101-2.3674-10.749-2.3674-14.849 0v-11.023c-1.969-1.1369-3.076-2.6788-3.076-4.2866 0-2.4519 2.559-4.6624 6.482-5.6007 3.924-0.9383 8.44-0.4197 11.443 1.3141" vector-effect="non-scaling-stroke"/>
    <path d="m194.52 113.35v19.596c-4.1-2.367-10.749-2.367-14.849 0v-11.023c-1.969-1.137-3.076-2.678-3.076-4.286 0-2.452 2.559-4.663 6.482-5.601 3.924-0.938 8.44-0.42 11.443 1.314" vector-effect="non-scaling-stroke"/>
    <path d="m248.41 82.242v19.596l12.091-6.9815v-19.596l-12.091 6.981" vector-effect="non-scaling-stroke"/>
    <path d="m140.64 144.46v19.596l12.091-6.981v-19.596l-12.091 6.981" vector-effect="non-scaling-stroke"/>
    <path d="m113.7 160.01v19.596l12.091-6.981v-19.596l-12.091 6.981" vector-effect="non-scaling-stroke"/>
    <path d="m410.05-11.084v19.596l12.092-6.981v-19.596l-12.092 6.9811" vector-effect="non-scaling-stroke"/>
    <path d="m383.11 4.4703v19.596l12.092-6.981v-19.596l-12.092 6.981" vector-effect="non-scaling-stroke"/>
    <path d="m194.52 113.35v19.596l12.092-6.981v-19.596l-12.092 6.981" vector-effect="non-scaling-stroke"/>
    <path d="m275.35 66.687v19.596l12.092-6.9811v-19.596l-12.092 6.9811" vector-effect="non-scaling-stroke"/>
    <path d="m302.29 51.133v19.596l12.092-6.981v-19.596l-12.092 6.981" vector-effect="non-scaling-stroke"/>
    <path d="m86.762 175.57v19.596l12.092-6.981v-19.596l-12.092 6.981" vector-effect="non-scaling-stroke"/>
    <path d="m329.23 35.579v19.596l12.091-6.9811v-19.596l-12.091 6.981" vector-effect="non-scaling-stroke"/>
    <path d="m356.17 20.025v19.596l12.091-6.981v-19.596l-12.091 6.9811" vector-effect="non-scaling-stroke"/>
    <path d="m167.58 128.9v19.596l12.092-6.981v-19.596l-12.092 6.981" vector-effect="non-scaling-stroke"/>
    <path d="m221.47 97.796v19.596l12.091-6.981v-19.596l-12.091 6.9811" vector-effect="non-scaling-stroke"/>
    <path d="m-295.08-44.887c1.012 0.5839 1.806 1.2809 2.334 2.0483v4.4766c-0.528 0.7674-1.322 1.4644-2.334 2.0483v-8.5732" vector-effect="non-scaling-stroke"/>
    <path d="m-295.08-44.887c1.012 0.5839 1.806 1.2809 2.334 2.0483v-3.3955l-2.334 1.3472" vector-effect="non-scaling-stroke"/>
   </g>
   <g transform="translate(603.61 1507.7)" fill="none" fill-rule="evenodd" stroke-linecap="round" stroke-linejoin="bevel" stroke-width="2.5">
    <path d="m461.39-40.723-35.32-20.392"/>
    <path d="m461.39-21.127v-19.596"/>
    <path d="m436.99-7.0423c-4.101-2.3674-10.749-2.3674-14.849 0"/>
    <path d="m410.05 8.512 12.092-6.981"/>
    <path d="m410.05 8.512c-4.1-2.3674-10.749-2.3674-14.849 0"/>
    <path d="m383.11 24.066 12.092-6.981"/>
    <path d="m383.11 24.066c-4.1-2.3674-10.748-2.3674-14.849 0"/>
    <path d="m356.17 39.62 12.091-6.981"/>
    <path d="m356.17 39.62c-4.101-2.3674-10.749-2.3674-14.85 0"/>
    <path d="m329.23 55.175 12.091-6.9811"/>
    <path d="m329.23 55.175c-4.101-2.3675-10.749-2.3675-14.849 0"/>
    <path d="m302.29 70.729 12.092-6.981"/>
    <path d="m302.29 70.729c-4.1-2.3674-10.749-2.3674-14.849 0"/>
    <path d="m275.35 86.283 12.092-6.9811"/>
    <path d="m275.35 86.283c-4.1-2.3675-10.748-2.3675-14.849 0"/>
    <path d="m248.41 101.84 12.091-6.9815"/>
    <path d="m248.41 101.84c-4.101-2.3679-10.749-2.3679-14.85 0"/>
    <path d="m221.47 117.39 12.091-6.981"/>
    <path d="m221.47 117.39c-4.101-2.368-10.749-2.368-14.849 0"/>
    <path d="m194.52 132.95 12.092-6.981"/>
    <path d="m194.52 132.95c-4.1-2.367-10.749-2.367-14.849 0"/>
    <path d="m167.58 148.5 12.092-6.981"/>
    <path d="m167.58 148.5c-4.1-2.367-10.748-2.367-14.849 0"/>
    <path d="m140.64 164.06 12.091-6.981"/>
    <path d="m140.64 164.06c-4.101-2.368-10.749-2.368-14.85 0"/>
    <path d="m113.7 179.61 12.091-6.981"/>
    <path d="m113.7 179.61c-4.101-2.368-10.749-2.368-14.85 0"/>
    <path d="m86.762 195.16 12.092-6.981"/>
    <path d="m86.762 195.16c-4.1005-2.367-10.749-2.367-14.849 0"/>
    <path d="m-79.55 291.18 151.46-87.447"/>
    <path d="m-461.39 70.729 381.84 220.45"/>
    <path d="m436.99-7.0423 24.395-14.085"/>
    <path d="m415.78-59.569c3.661 0.5992 7.597 0.0078 10.288-1.5458"/>
    <path d="m436.99-26.638c-3.003-1.7338-7.519-2.2524-11.443-1.3141-3.923 0.9383-6.482 3.1488-6.482 5.6007"/>
    <path d="m419.07-22.352c0 1.6078 1.107 3.1497 3.076 4.2866"/>
    <path d="m410.05-11.084 12.092-6.9811"/>
    <path d="m410.05-11.084c-3.003-1.7338-7.519-2.2525-11.443-1.3142-3.923 0.9384-6.481 3.1488-6.481 5.6008"/>
    <path d="m392.13-6.7973c0 1.6078 1.106 3.1497 3.075 4.2866"/>
    <path d="m383.11 4.4703 12.092-6.981"/>
    <path d="m383.11 4.4703c-3.003-1.7338-7.519-2.2524-11.442-1.3141-3.924 0.93831-6.482 3.1488-6.482 5.6007"/>
    <path d="m365.19 8.7569c0 1.6078 1.106 3.1498 3.075 4.2866"/>
    <path d="m356.17 20.025 12.091-6.9811"/>
    <path d="m356.17 20.025c-3.003-1.7338-7.52-2.2524-11.443-1.3141-3.924 0.9383-6.482 3.1488-6.482 5.6007"/>
    <path d="m338.24 24.311c0 1.6078 1.106 3.1497 3.075 4.2866"/>
    <path d="m329.23 35.579 12.091-6.981"/>
    <path d="m329.23 35.579c-3.003-1.7337-7.519-2.2524-11.443-1.3141-3.923 0.9383-6.482 3.1488-6.482 5.6007"/>
    <path d="m311.3 39.865c0 1.6078 1.107 3.1498 3.076 4.2867"/>
    <path d="m302.29 51.133 12.092-6.981"/>
    <path d="m302.29 51.133c-3.003-1.7338-7.519-2.2524-11.443-1.3141-3.923 0.9383-6.481 3.1488-6.481 5.6007"/>
    <path d="m284.36 55.42c0 1.6078 1.106 3.1497 3.075 4.2866"/>
    <path d="m275.35 66.687 12.092-6.9811"/>
    <path d="m275.35 66.687c-3.003-1.7338-7.519-2.2525-11.442-1.3142-3.924 0.9384-6.482 3.1488-6.482 5.6008"/>
    <path d="m257.42 70.974c0 1.6078 1.106 3.1497 3.075 4.2866"/>
    <path d="m248.41 82.242 12.091-6.981"/>
    <path d="m248.41 82.242c-3.003-1.7338-7.52-2.2524-11.443-1.3141-3.924 0.9383-6.482 3.1488-6.482 5.6007"/>
    <path d="m230.48 86.528c0 1.6078 1.106 3.1498 3.075 4.2866"/>
    <path d="m221.47 97.796 12.091-6.9811"/>
    <path d="m221.47 97.796c-3.003-1.7338-7.519-2.2524-11.443-1.3141s-6.482 3.1488-6.482 5.6002"/>
    <path d="m203.54 102.08c0 1.608 1.106 3.15 3.076 4.287"/>
    <path d="m194.52 113.35 12.092-6.981"/>
    <path d="m194.52 113.35c-3.003-1.734-7.519-2.252-11.443-1.314-3.923 0.938-6.482 3.149-6.482 5.601"/>
    <path d="m176.6 117.64c0 1.608 1.107 3.149 3.076 4.286"/>
    <path d="m167.58 128.9 12.092-6.981"/>
    <path d="m167.58 128.9c-3.003-1.733-7.519-2.252-11.442-1.314-3.924 0.939-6.482 3.149-6.482 5.601"/>
    <path d="m149.66 133.19c0 1.608 1.106 3.15 3.075 4.287"/>
    <path d="m140.64 144.46 12.091-6.981"/>
    <path d="m140.64 144.46c-3.003-1.734-7.52-2.253-11.443-1.314-3.924 0.938-6.482 3.148-6.482 5.6"/>
    <path d="m122.72 148.74c0 1.608 1.106 3.15 3.075 4.287"/>
    <path d="m113.7 160.01 12.091-6.981"/>
    <path d="m113.7 160.01c-3.003-1.734-7.519-2.253-11.443-1.314-3.9236 0.938-6.4819 3.149-6.4819 5.601"/>
    <path d="m95.778 164.3c0 1.607 1.1063 3.149 3.0754 4.286"/>
    <path d="m86.762 175.57 12.092-6.981"/>
    <path d="m86.762 175.57c-3.003-1.734-7.5192-2.252-11.443-1.314s-6.4818 3.149-6.4818 5.601"/>
    <path d="m68.837 179.85c0 1.608 1.1062 3.15 3.0754 4.286"/>
    <path d="m-79.55 271.59 151.46-87.447"/>
    <path d="m-461.39 51.133 381.84 220.45"/>
    <path d="m-309.92-36.314-151.46 87.447"/>
    <path d="m-295.08-44.887c1.012 0.5839 1.806 1.2809 2.334 2.0483"/>
    <path d="m-292.74-38.362c-1.305 1.8961-4.174 3.2861-7.635 3.6987-3.461 0.4125-7.049-0.2077-9.548-1.6504"/>
    <path d="m-292.74-46.234-2.334 1.3472"/>
    <path d="m436.99-26.638 24.395-14.085"/>
    <path d="m42.426 174.22 373.35-215.56"/>
    <path d="m-292.74-19.29 335.17 193.51"/>
    <path d="m436.99-26.638v19.596"/>
    <path d="m422.14-18.065v19.596"/>
    <path d="m410.05-11.084v19.596"/>
    <path d="m395.2-2.5107v19.596"/>
    <path d="m383.11 4.4703v19.596"/>
    <path d="m368.26 13.044v19.596"/>
    <path d="m356.17 20.025v19.596"/>
    <path d="m341.32 28.598v19.596"/>
    <path d="m329.23 35.579v19.596"/>
    <path d="m314.38 44.152v19.596"/>
    <path d="m302.29 51.133v19.596"/>
    <path d="m287.44 59.706v19.596"/>
    <path d="m275.35 66.687v19.596"/>
    <path d="m260.5 75.261v19.596"/>
    <path d="m248.41 82.242v19.596"/>
    <path d="m233.56 90.815v19.596"/>
    <path d="m221.47 97.796v19.596"/>
    <path d="m206.62 106.37v19.596"/>
    <path d="m194.52 113.35v19.596"/>
    <path d="m179.68 121.92v19.596"/>
    <path d="m167.58 128.9v19.596"/>
    <path d="m152.74 137.48v19.596"/>
    <path d="m140.64 144.46v19.596"/>
    <path d="m125.79 153.03v19.596"/>
    <path d="m113.7 160.01v19.596"/>
    <path d="m98.854 168.59v19.596"/>
    <path d="m86.762 175.57v19.596"/>
    <path d="m71.913 184.14v19.596"/>
    <path d="m-79.55 291.18v-19.596"/>
    <path d="m-461.39 70.729v-19.596"/>
    <path d="m-295.08-44.887v8.5732"/>
    <path d="m415.78-41.335v-56.338"/>
    <path d="m415.78-97.673-335.17-193.51"/>
    <path d="m42.426 174.22v-56.338"/>
    <path d="m42.426 117.88 373.35-215.56"/>
    <path d="m-292.74-19.29v-56.338"/>
    <path d="m80.61-291.18-373.35 215.56"/>
    <path d="m-292.74-75.628 335.17 193.51"/>
   </g>
   <g transform="rotate(90 -502.2 1243.4)" fill="#fff" stroke-linecap="square" stroke-linejoin="bevel">
    <text x="4" y="92" fill="#ffffff" font-family="osifont" font-size="67px" font-weight="400" stroke="#ffffff" xml:space="preserve">0.8</text>
   </g>
   <g stroke-linecap="round" stroke-linejoin="bevel" stroke-width="1.3">
    <g transform="translate(603.61 1507.7)" fill="none">
     <path d="m33.199 396.28v-155.69m-112.75 31.002 121.76 70.296m-121.76-50.7 121.76 70.295" fill-rule="evenodd" stroke="#fff"/>
    </g>
    <g transform="translate(636.81 1844.4)" fill="#fff">
     <path d="m0 0 3.3333-20h-6.6667l3.3333 20" fill="#fff" fill-rule="evenodd" stroke="#fff"/>
    </g>
    <g transform="translate(636.81 1864)" fill="#fff">
     <path d="m0 0-3.3333 20h6.6667l-3.3333-20" fill="#fff" fill-rule="evenodd" stroke="#fff"/>
    </g>
   </g>
   <g transform="rotate(30 -2561.6 1390.4)" fill="none" stroke-linecap="square" stroke-linejoin="bevel">
    <text x="4" y="92" fill="#ffffff" font-family="osifont" font-size="67px" font-weight="400" stroke="#ffffff" xml:space="preserve">18</text>
   </g>
   <g transform="translate(603.61 1507.7)" fill="none" stroke-linecap="round" stroke-linejoin="bevel" stroke-width="1.3">
    <path d="m-79.55 179.2-381.84-220.45m0 92.39v-102.79m381.84 323.24v-102.79" fill-rule="evenodd" stroke="#fff"/>
   </g>
   <g fill="#fff" stroke-linejoin="bevel">
    <g transform="translate(142.23 1466.4)" stroke-linecap="round" stroke-width="1.3">
     <path d="M 0,0 15.6538,12.8868 18.9872,7.11325 0,0" fill="#fff" fill-rule="evenodd" stroke="#fff"/>
    </g>
    <g transform="translate(524.06 1686.9)" stroke-linecap="round" stroke-width="1.3">
     <path d="M 0,0 -15.6538,-12.8868 -18.9872,-7.11325 0,0" fill="#fff" fill-rule="evenodd" stroke="#fff"/>
    </g>
    <g transform="rotate(-30 3086.7 -563.89)" stroke-linecap="square">
     <text x="4" y="92" fill="#ffffff" font-family="osifont" font-size="67px" font-weight="400" stroke="#ffffff" xml:space="preserve">25.5</text>
    </g>
   </g>
   <g transform="translate(603.61 1507.7)" fill="none" stroke-linecap="round" stroke-linejoin="bevel" stroke-width="1.3">
    <path d="m-79.55 179.3 540.94-312.31m0 92.285v-102.69m-540.94 415v-102.68" fill-rule="evenodd" stroke="#fff"/>
   </g>
   <g fill="#fff" stroke-linejoin="bevel">
    <g transform="translate(1065 1374.7)" stroke-linecap="round" stroke-width="1.3">
     <path d="M 0,0 -18.9872,7.11325 -15.6538,12.8868 0,0" fill="#fff" fill-rule="evenodd" stroke="#fff"/>
    </g>
    <g transform="translate(524.06 1687)" stroke-linecap="round" stroke-width="1.3">
     <path d="M 0,0 18.9872,-7.11325 15.6538,-12.8868 0,0" fill="#fff" fill-rule="evenodd" stroke="#fff"/>
    </g>
    <g transform="rotate(90 -28.615 1227.2)" stroke-linecap="square">
     <text x="4" y="92" fill="#ffffff" font-family="osifont" font-size="67px" font-weight="400" stroke="#ffffff" xml:space="preserve">2.3</text>
    </g>
   </g>
   <g stroke-linecap="round" stroke-linejoin="bevel" stroke-width="1.3">
    <g transform="translate(603.61 1507.7)" fill="none">
     <path d="m490.65-44.56v-204.83m-448.22 367.27 457.23-263.98m-457.23 320.32 457.23-263.98" fill-rule="evenodd" stroke="#fff"/>
    </g>
    <g transform="translate(1094.3 1366.8)" fill="#fff">
     <path d="m0 0 3.3333-20h-6.6667l3.3333 20" fill="#fff" fill-rule="evenodd" stroke="#fff"/>
    </g>
    <g transform="translate(1094.3 1423.1)" fill="#fff">
     <path d="m0 0-3.3333 20h6.6667l-3.3333-20" fill="#fff" fill-rule="evenodd" stroke="#fff"/>
    </g>
   </g>
  </g>
 </g>
</svg>
